<?xml version="1.0" encoding="utf-8"?>
<!-- Generator: Adobe Illustrator 16.0.0, SVG Export Plug-In . SVG Version: 6.00 Build 0)  -->
<!DOCTYPE svg PUBLIC "-//W3C//DTD SVG 1.1//EN" "http://www.w3.org/Graphics/SVG/1.1/DTD/svg11.dtd">
<svg version="1.1" id="Forma_1_1_" xmlns="http://www.w3.org/2000/svg" xmlns:xlink="http://www.w3.org/1999/xlink" x="0px" y="0px"
	 width="17.998px" height="17.998px" viewBox="0 0 17.998 17.998" enable-background="new 0 0 17.998 17.998" xml:space="preserve">
<g id="Forma_1">
	<g>
		<path fill="#628734" d="M8.932,0.001c-4.7,0.063-8.458,3.924-8.396,8.625c0.063,4.697,3.924,8.458,8.624,8.396
			c4.699-0.063,8.459-3.926,8.396-8.625C17.493,3.698,13.631-0.062,8.932,0.001z M9.875,2.837c0.865,0,1.121,0.502,1.121,1.076
			c0,0.718-0.574,1.381-1.554,1.381c-0.819,0-1.209-0.412-1.187-1.094C8.256,3.625,8.737,2.837,9.875,2.837z M7.657,13.83
			c-0.591,0-1.024-0.358-0.61-1.936l0.678-2.799c0.118-0.449,0.138-0.628,0-0.628c-0.178,0-0.945,0.31-1.398,0.614L6.031,8.598
			c1.438-1.201,3.092-1.905,3.801-1.905c0.591,0,0.689,0.699,0.395,1.775L9.449,11.41c-0.138,0.52-0.078,0.698,0.059,0.698
			c0.179,0,0.76-0.215,1.331-0.664l0.335,0.449C9.774,13.291,8.248,13.83,7.657,13.83z"/>
	</g>
</g>
</svg>
